<svg xmlns="http://www.w3.org/2000/svg" version="1.1" xmlns:xlink="http://www.w3.org/1999/xlink" xmlns:svgjs="http://svgjs.com/svgjs" width="200" height="200"><svg width="200" height="200" viewBox="0 0 200 200" fill="none" xmlns="http://www.w3.org/2000/svg">
<rect width="200" height="200" rx="20" fill="white"></rect>
<path d="M71.8583 45.9091H88.2646V123.253C88.2646 130.249 86.8796 136.232 84.1097 141.204C81.3754 146.175 77.5224 149.975 72.5508 152.603C67.5792 155.195 61.7553 156.491 55.0792 156.491C48.9357 156.491 43.4137 155.373 38.5131 153.136C33.6481 150.898 29.7951 147.649 26.9542 143.388C24.1488 139.091 22.7461 133.871 22.7461 127.727H39.0991C39.0991 130.746 39.7915 133.356 41.1765 135.558C42.5969 137.759 44.5323 139.482 46.9826 140.724C49.4684 141.932 52.3093 142.536 55.5053 142.536C58.9854 142.536 61.9329 141.808 64.3477 140.352C66.7979 138.86 68.6623 136.676 69.9407 133.8C71.2191 130.923 71.8583 127.408 71.8583 123.253V45.9091ZM154.622 45.9091H171.028V123.253C171.028 130.249 169.643 136.232 166.873 141.204C164.139 146.175 160.286 149.975 155.314 152.603C150.343 155.195 144.519 156.491 137.843 156.491C131.699 156.491 126.177 155.373 121.277 153.136C116.412 150.898 112.559 147.649 109.718 143.388C106.912 139.091 105.51 133.871 105.51 127.727H121.863C121.863 130.746 122.555 133.356 123.94 135.558C125.361 137.759 127.296 139.482 129.746 140.724C132.232 141.932 135.073 142.536 138.269 142.536C141.749 142.536 144.697 141.808 147.111 140.352C149.562 138.86 151.426 136.676 152.704 133.8C153.983 130.923 154.622 127.408 154.622 123.253V45.9091Z" fill="#E3673A"></path>
</svg><style>@media (prefers-color-scheme: light) { :root { filter: none; } }
</style></svg>