<svg xmlns="http://www.w3.org/2000/svg" version="1.1" xmlns:xlink="http://www.w3.org/1999/xlink" xmlns:svgjs="http://svgjs.com/svgjs" width="572" height="633"><svg width="572" height="633" viewBox="0 0 572 633" fill="none" xmlns="http://www.w3.org/2000/svg">
<path fill-rule="evenodd" clip-rule="evenodd" d="M325.998 126.352C360.803 86.1682 412.05 3.32195 454.666 35.1016C503.575 71.5738 436.397 155.702 446.125 215.932C449.955 239.644 478.533 250.495 492.6 269.963C510.456 294.673 529.564 318.222 540.581 346.648C555.202 384.375 581.082 425.447 567.649 463.612C554.95 499.691 505.854 506.632 475.899 530.416C444.674 555.209 422.794 591.65 386.266 607.633C347.656 624.526 298.78 644.945 262.276 623.884C221.461 600.336 236.544 527.382 198.642 499.385C161.189 471.721 96.9179 507.549 62.4277 476.267C31.4066 448.132 27.5702 394.677 38.6678 354.295C50.0686 312.809 100.056 294.702 122.424 257.95C139.086 230.574 120.632 172.845 152.258 167.658C201.13 159.643 236.516 242.791 284.699 231.335C321.688 222.541 301.106 155.091 325.998 126.352Z" fill="#FFB4B4"></path>
<path d="M286.742 352.06H342" stroke="#E3673A" stroke-width="2.9869"></path>
<path d="M141.878 352.06H194.894" stroke="#E3673A" stroke-width="2.9869"></path>
<path d="M0 352.06H56.0044" stroke="#E3673A" stroke-width="2.9869"></path>
<path d="M293.463 377.448H342" stroke="#E3673A" stroke-width="2.9869"></path>
<path d="M115.742 377.448H221.031" stroke="#E3673A" stroke-width="2.9869"></path>
<path d="M0 377.448H44.0568" stroke="#E3673A" stroke-width="2.9869"></path>
<path d="M123.213 31.7141C121.929 25.6068 130.095 24.5844 132.92 19.0197C134.883 15.1543 132.777 10.5049 136.654 8.5656C145.611 4.0854 171 -2.42872 184.444 6.32543C195.018 13.2101 199.554 20.9076 202.366 33.2075C204.579 42.8898 202.448 48.79 200.872 58.5962C196.873 83.4741 191.73 111.991 181.454 119.983C174.734 125.21 155.319 124.463 148.598 119.983C131.585 108.64 126.196 45.9019 123.213 31.7141Z" fill="white" stroke="#E3673A" stroke-width="2.9869"></path>
<path d="M257.62 228.85H70.939L90.3538 318.457H249.406L257.62 228.85Z" fill="white" stroke="#E3673A" stroke-width="2.9869"></path>
<path d="M91.8445 125.054C98.5678 119.291 116.325 104.494 129.183 110.12C141.131 115.347 150.839 157.164 165.026 157.164C177.721 157.164 193.402 113.854 196.389 112.36C199.376 110.867 207.8 119.827 207.8 119.827C207.8 119.827 243.084 131.511 257.084 148.203C276.498 171.351 306.157 219.888 307.648 227.356C310.034 239.303 252.125 283.909 253 278C255 264.5 255.167 246.234 257 242.5C257.879 240.71 278.284 228.364 274.048 227.356C258.367 223.622 232.232 196.74 230.738 179.565C228.768 156.905 224.5 227.356 224.5 227.356H115.5C111.766 206.447 109.02 189.273 105.286 178.072C101.553 166.871 77.6595 227.924 63.4717 225.116C62.6968 224.962 62.0729 224.762 61.5725 224.521C67.2043 237.05 76.166 255.264 76.166 257.971C76.166 266.142 82.8865 281.12 82.8865 284.107C82.8865 296.534 31.9677 249.149 25.386 230.343C20.1594 215.408 70.938 142.975 91.8445 125.054Z" fill="white" stroke="#E3673A" stroke-width="2.9869"></path>
<path d="M155.291 479.749C154.558 477.509 123.743 493.19 117.982 497.67C111.262 502.898 103.77 526.046 99.287 538.74C89.8986 565.323 153.481 507.378 155.291 493.19C155.956 487.983 156.924 484.738 155.291 479.749Z" fill="white" stroke="#E3673A" stroke-width="2.9869"></path>
<path d="M242.686 519.326C241.703 509.188 242.036 500.969 249.405 493.937C253.885 489.663 274.047 502.898 287.489 507.378C293.462 509.369 298.69 549.195 289.729 556.662C278.976 565.623 243.338 526.046 242.686 519.326Z" fill="white" stroke="#E3673A" stroke-width="2.9869"></path>
<path d="M173.24 332.644C173.24 332.644 221.031 378.195 239.699 393.876C259.86 410.812 241.939 481.194 248.659 484.976C260.321 491.541 279.275 497.857 282.262 496.177C294.21 489.457 297.943 382.675 291.969 358.78C289.729 349.819 246.419 317.71 246.419 317.71" stroke="#E3673A" stroke-width="2.9869"></path>
<path d="M177.671 333.391C177.671 333.391 124.494 356.54 114.946 377.448C106.079 396.863 162.586 465.113 151.536 474.522C140.486 483.932 129.773 495.936 117.187 488.71C106.782 482.736 36.7018 376.808 41.7674 368.487C52.2232 351.312 92.5938 318.457 92.5938 318.457" stroke="#E3673A" stroke-width="2.9869"></path>
<path d="M190.885 70.1277L181.465 94.9135C181.465 94.9135 180.117 92.6698 178.049 90.8782C175.558 88.7207 173.443 88.1424 170.463 88.5878C167.482 89.0332 163.874 92.9964 163.874 92.9964C163.874 92.9964 158.665 89.1254 154.623 89.2428C151.078 89.3458 146.369 92.1883 146.369 92.1883C146.369 92.1883 143.017 89.2209 141.118 86.1249C139.194 82.9884 137.18 74.1497 136.697 66.2415C136.033 55.3726 133.242 47.3589 138.361 38.6004C145.218 26.8688 157.835 36.213 169.04 30.5918C172.248 28.9824 177.042 25.9718 177.042 25.9718C177.042 25.9718 186.634 34.9447 189.716 42.9101C193.527 52.7609 190.885 70.1277 190.885 70.1277Z" fill="white" stroke="#E3673A" stroke-width="2.9869"></path>
<circle cx="180.734" cy="64.1765" r="1.59541" transform="rotate(-10.4503 180.734 64.1765)" fill="#E3673A"></circle>
<path d="M159.554 75.3765C159.554 75.3765 161.655 79.194 163.999 79.4753C166.524 79.7783 169.507 76.0002 169.507 76.0002" stroke="#E3673A" stroke-width="2"></path>
<path d="M170.163 59.6365C170.163 59.6365 176.368 55.3872 180.856 56.0419C184.344 56.5507 188 59.5912 188 59.5912" stroke="#E3673A" stroke-width="2"></path>
<path d="M142.333 58.2805C142.333 58.2805 148.496 54.4641 153.027 54.6859C157.011 54.8809 161.74 57.9458 161.74 57.9458" stroke="#E3673A" stroke-width="2"></path>
<circle cx="151.336" cy="63.1092" r="1.59541" transform="rotate(-10.4503 151.336 63.1092)" fill="#E3673A"></circle>
<path d="M155.928 96.8057C155.928 96.8057 160.785 99.2334 164.557 99.6063C167.657 99.9129 172.197 97.0498 172.197 97.0498" stroke="#E3673A" stroke-width="2"></path>
</svg><style>@media (prefers-color-scheme: light) { :root { filter: none; } }
</style></svg>